General
Unique ID                                : 179561786784194071875324919381630796180 (0x8716579AA6A1CD3EF05D3B4FA5EA4194)
Complete name                            : Harry.Potter.and.the.Deathly.Hallows.Part.2.2011.REPACK.UHD.BluRay.2160p.DTS-X.7.1.DV.HEVC.HYBRID.REMUX-FraMeSToR.mkv
Format                                   : Matroska
Format version                           : Version 4
File size                                : 46.5 GiB
Duration                                 : 2 h 10 min
Overall bit rate mode                    : Variable
Overall bit rate                         : 51.1 Mb/s
Movie name                               : Harry Potter and the Deathly Hallows: Part 2 (2011)
Encoded date                             : UTC 2024-06-14 13:13:56
Writing application                      : mkvmerge v85.0 ('Shame For You') 64-bit
Writing library                          : libebml v1.4.5 + libmatroska v1.7.1
IMDB                                     : tt1201607
TMDB                                     : movie/12445

Video
ID                                       : 1
Format                                   : HEVC
Format/Info                              : High Efficiency Video Coding
Format profile                           : Main 10@L5.1@High
HDR format                               : SMPTE ST 2086, HDR10 compatible
Codec ID                                 : V_MPEGH/ISO/HEVC
Duration                                 : 2 h 10 min
Bit rate                                 : 46.7 Mb/s
Width                                    : 3 840 pixels
Height                                   : 2 160 pixels
Display aspect ratio                     : 16:9
Frame rate mode                          : Constant
Frame rate                               : 23.976 (24000/1001) FPS
Color space                              : YUV
Chroma subsampling                       : 4:2:0 (Type 2)
Bit depth                                : 10 bits
Bits/(Pixel*Frame)                       : 0.235
Stream size                              : 42.6 GiB (91%)
Default                                  : Yes
Forced                                   : No
Color range                              : Limited
Color primaries                          : BT.2020
Transfer characteristics                 : PQ
Matrix coefficients                      : BT.2020 non-constant
Mastering display color primaries        : Display P3
Mastering display luminance              : min: 0.0050 cd/m2, max: 4000 cd/m2
Maximum Content Light Level              : 500 cd/m2
Maximum Frame-Average Light Level        : 200 cd/m2

Audio
ID                                       : 2
Format                                   : DTS XLL X
Format/Info                              : Digital Theater Systems
Commercial name                          : DTS-HD Master Audio
Codec ID                                 : A_DTS
Duration                                 : 2 h 10 min
Bit rate mode                            : Variable
Bit rate                                 : 3 787 kb/s
Channel(s)                               : 8 channels
Channel(s)_Original                      : Object Based
ChannelLayout_Original                   : Object Based
Sampling rate                            : 48.0 kHz
Frame rate                               : 93.750 FPS (512 SPF)
Bit depth                                : 24 bits
Stream size                              : 3.45 GiB (7%)
Title                                    : DTS:X 7.1
Language                                 : English
Default                                  : Yes
Forced                                   : No

Text #1
ID                                       : 3
Format                                   : PGS
Codec ID                                 : S_HDMV/PGS
Codec ID/Info                            : Picture based subtitle format used on BDs/HD-DVDs
Duration                                 : 2 h 9 min
Bit rate                                 : 19.8 kb/s
Count of elements                        : 2058
Stream size                              : 18.3 MiB (0%)
Title                                    : English (SDH)
Language                                 : English
Default                                  : No
Forced                                   : No

Text #2
ID                                       : 4
Format                                   : PGS
Codec ID                                 : S_HDMV/PGS
Codec ID/Info                            : Picture based subtitle format used on BDs/HD-DVDs
Duration                                 : 2 h 8 min
Bit rate                                 : 9 680 b/s
Count of elements                        : 2034
Stream size                              : 8.92 MiB (0%)
Title                                    : Arabic
Language                                 : Arabic
Default                                  : No
Forced                                   : No

Text #3
ID                                       : 5
Format                                   : PGS
Codec ID                                 : S_HDMV/PGS
Codec ID/Info                            : Picture based subtitle format used on BDs/HD-DVDs
Duration                                 : 2 h 8 min
Bit rate                                 : 14.8 kb/s
Count of elements                        : 1752
Stream size                              : 13.6 MiB (0%)
Title                                    : Bulgarian
Language                                 : Bulgarian
Default                                  : No
Forced                                   : No

Text #4
ID                                       : 6
Format                                   : UTF-8
Codec ID                                 : S_TEXT/UTF8
Codec ID/Info                            : UTF-8 Plain Text
Duration                                 : 1 h 55 min
Bit rate                                 : 36 b/s
Count of elements                        : 1009
Stream size                              : 30.6 KiB (0%)
Title                                    : Catalan
Language                                 : Catalan
Default                                  : No
Forced                                   : No

Text #5
ID                                       : 7
Format                                   : PGS
Codec ID                                 : S_HDMV/PGS
Codec ID/Info                            : Picture based subtitle format used on BDs/HD-DVDs
Duration                                 : 2 h 8 min
Bit rate                                 : 15.1 kb/s
Count of elements                        : 1882
Stream size                              : 13.9 MiB (0%)
Title                                    : Chinese (Cantonese)
Language                                 : Chinese
Default                                  : No
Forced                                   : No

Text #6
ID                                       : 8
Format                                   : PGS
Codec ID                                 : S_HDMV/PGS
Codec ID/Info                            : Picture based subtitle format used on BDs/HD-DVDs
Duration                                 : 2 h 8 min
Bit rate                                 : 15.5 kb/s
Count of elements                        : 1940
Stream size                              : 14.3 MiB (0%)
Title                                    : Chinese (Simplified)
Language                                 : Chinese
Default                                  : No
Forced                                   : No

Text #7
ID                                       : 9
Format                                   : PGS
Codec ID                                 : S_HDMV/PGS
Codec ID/Info                            : Picture based subtitle format used on BDs/HD-DVDs
Duration                                 : 2 h 8 min
Bit rate                                 : 15.5 kb/s
Count of elements                        : 2002
Stream size                              : 14.3 MiB (0%)
Title                                    : Chinese (Traditional)
Language                                 : Chinese
Default                                  : No
Forced                                   : No

Text #8
ID                                       : 10
Format                                   : PGS
Codec ID                                 : S_HDMV/PGS
Codec ID/Info                            : Picture based subtitle format used on BDs/HD-DVDs
Duration                                 : 2 h 8 min
Bit rate                                 : 15.3 kb/s
Count of elements                        : 1700
Stream size                              : 14.1 MiB (0%)
Title                                    : Croatian
Language                                 : Croatian
Default                                  : No
Forced                                   : No

Text #9
ID                                       : 11
Format                                   : PGS
Codec ID                                 : S_HDMV/PGS
Codec ID/Info                            : Picture based subtitle format used on BDs/HD-DVDs
Duration                                 : 2 h 8 min
Bit rate                                 : 15.4 kb/s
Count of elements                        : 1834
Stream size                              : 14.2 MiB (0%)
Title                                    : Czech
Language                                 : Czech
Default                                  : No
Forced                                   : No

Text #10
ID                                       : 12
Format                                   : PGS
Codec ID                                 : S_HDMV/PGS
Codec ID/Info                            : Picture based subtitle format used on BDs/HD-DVDs
Duration                                 : 2 h 8 min
Bit rate                                 : 16.2 kb/s
Count of elements                        : 1478
Stream size                              : 14.9 MiB (0%)
Title                                    : Danish
Language                                 : Danish
Default                                  : No
Forced                                   : No

Text #11
ID                                       : 13
Format                                   : PGS
Codec ID                                 : S_HDMV/PGS
Codec ID/Info                            : Picture based subtitle format used on BDs/HD-DVDs
Duration                                 : 2 h 8 min
Bit rate                                 : 16.1 kb/s
Count of elements                        : 1598
Stream size                              : 14.8 MiB (0%)
Title                                    : Dutch
Language                                 : Dutch
Default                                  : No
Forced                                   : No

Text #12
ID                                       : 14
Format                                   : PGS
Codec ID                                 : S_HDMV/PGS
Codec ID/Info                            : Picture based subtitle format used on BDs/HD-DVDs
Duration                                 : 2 h 8 min
Bit rate                                 : 13.5 kb/s
Count of elements                        : 2070
Stream size                              : 12.5 MiB (0%)
Title                                    : Estonian
Language                                 : Estonian
Default                                  : No
Forced                                   : No

Text #13
ID                                       : 15
Format                                   : PGS
Codec ID                                 : S_HDMV/PGS
Codec ID/Info                            : Picture based subtitle format used on BDs/HD-DVDs
Duration                                 : 2 h 8 min
Bit rate                                 : 15.4 kb/s
Count of elements                        : 1676
Stream size                              : 14.1 MiB (0%)
Title                                    : Finnish
Language                                 : Finnish
Default                                  : No
Forced                                   : No

Text #14
ID                                       : 16
Format                                   : PGS
Codec ID                                 : S_HDMV/PGS
Codec ID/Info                            : Picture based subtitle format used on BDs/HD-DVDs
Duration                                 : 2 h 8 min
Bit rate                                 : 15.4 kb/s
Count of elements                        : 1934
Stream size                              : 14.2 MiB (0%)
Title                                    : French (Parisian)
Language                                 : French
Default                                  : No
Forced                                   : No

Text #15
ID                                       : 17
Format                                   : PGS
Codec ID                                 : S_HDMV/PGS
Codec ID/Info                            : Picture based subtitle format used on BDs/HD-DVDs
Duration                                 : 2 h 9 min
Bit rate                                 : 23.7 kb/s
Count of elements                        : 2170
Stream size                              : 21.9 MiB (0%)
Title                                    : German (SDH)
Language                                 : German
Default                                  : No
Forced                                   : No

Text #16
ID                                       : 18
Format                                   : PGS
Codec ID                                 : S_HDMV/PGS
Codec ID/Info                            : Picture based subtitle format used on BDs/HD-DVDs
Duration                                 : 2 h 8 min
Bit rate                                 : 17.3 kb/s
Count of elements                        : 1890
Stream size                              : 16.0 MiB (0%)
Title                                    : Greek
Language                                 : Greek
Default                                  : No
Forced                                   : No

Text #17
ID                                       : 19
Format                                   : PGS
Codec ID                                 : S_HDMV/PGS
Codec ID/Info                            : Picture based subtitle format used on BDs/HD-DVDs
Duration                                 : 2 h 8 min
Bit rate                                 : 12.1 kb/s
Count of elements                        : 1870
Stream size                              : 11.1 MiB (0%)
Title                                    : Hebrew
Language                                 : Hebrew
Default                                  : No
Forced                                   : No

Text #18
ID                                       : 20
Format                                   : PGS
Codec ID                                 : S_HDMV/PGS
Codec ID/Info                            : Picture based subtitle format used on BDs/HD-DVDs
Duration                                 : 2 h 8 min
Bit rate                                 : 15.0 kb/s
Count of elements                        : 1876
Stream size                              : 13.8 MiB (0%)
Title                                    : Hungarian
Language                                 : Hungarian
Default                                  : No
Forced                                   : No

Text #19
ID                                       : 21
Format                                   : UTF-8
Codec ID                                 : S_TEXT/UTF8
Codec ID/Info                            : UTF-8 Plain Text
Duration                                 : 1 h 59 min
Bit rate                                 : 36 b/s
Count of elements                        : 952
Stream size                              : 31.8 KiB (0%)
Title                                    : Icelandic
Language                                 : Icelandic
Default                                  : No
Forced                                   : No

Text #20
ID                                       : 22
Format                                   : PGS
Codec ID                                 : S_HDMV/PGS
Codec ID/Info                            : Picture based subtitle format used on BDs/HD-DVDs
Duration                                 : 2 h 8 min
Bit rate                                 : 20.1 kb/s
Count of elements                        : 1990
Stream size                              : 18.5 MiB (0%)
Title                                    : Indonesian
Language                                 : Indonesian
Default                                  : No
Forced                                   : No

Text #21
ID                                       : 23
Format                                   : PGS
Codec ID                                 : S_HDMV/PGS
Codec ID/Info                            : Picture based subtitle format used on BDs/HD-DVDs
Duration                                 : 2 h 9 min
Bit rate                                 : 19.7 kb/s
Count of elements                        : 2082
Stream size                              : 18.2 MiB (0%)
Title                                    : Italian (SDH)
Language                                 : Italian
Default                                  : No
Forced                                   : No

Text #22
ID                                       : 24
Format                                   : PGS
Codec ID                                 : S_HDMV/PGS
Codec ID/Info                            : Picture based subtitle format used on BDs/HD-DVDs
Duration                                 : 1 h 55 min
Bit rate                                 : 15.2 kb/s
Count of elements                        : 1967
Stream size                              : 12.6 MiB (0%)
Title                                    : Japanese
Language                                 : Japanese
Default                                  : No
Forced                                   : No

Text #23
ID                                       : 25
Format                                   : PGS
Codec ID                                 : S_HDMV/PGS
Codec ID/Info                            : Picture based subtitle format used on BDs/HD-DVDs
Duration                                 : 2 h 8 min
Bit rate                                 : 12.3 kb/s
Count of elements                        : 1848
Stream size                              : 11.3 MiB (0%)
Title                                    : Korean
Language                                 : Korean
Default                                  : No
Forced                                   : No

Text #24
ID                                       : 26
Format                                   : PGS
Codec ID                                 : S_HDMV/PGS
Codec ID/Info                            : Picture based subtitle format used on BDs/HD-DVDs
Duration                                 : 2 h 8 min
Bit rate                                 : 14.5 kb/s
Count of elements                        : 1864
Stream size                              : 13.3 MiB (0%)
Title                                    : Latvian
Language                                 : Latvian
Default                                  : No
Forced                                   : No

Text #25
ID                                       : 27
Format                                   : PGS
Codec ID                                 : S_HDMV/PGS
Codec ID/Info                            : Picture based subtitle format used on BDs/HD-DVDs
Duration                                 : 2 h 8 min
Bit rate                                 : 15.0 kb/s
Count of elements                        : 1894
Stream size                              : 13.8 MiB (0%)
Title                                    : Lithuanian
Language                                 : Lithuanian
Default                                  : No
Forced                                   : No

Text #26
ID                                       : 28
Format                                   : UTF-8
Codec ID                                 : S_TEXT/UTF8
Codec ID/Info                            : UTF-8 Plain Text
Duration                                 : 2 h 8 min
Bit rate                                 : 48 b/s
Count of elements                        : 946
Stream size                              : 45.4 KiB (0%)
Title                                    : Macedonian
Language                                 : Macedonian
Default                                  : No
Forced                                   : No

Text #27
ID                                       : 29
Format                                   : UTF-8
Codec ID                                 : S_TEXT/UTF8
Codec ID/Info                            : UTF-8 Plain Text
Duration                                 : 1 h 55 min
Bit rate                                 : 34 b/s
Count of elements                        : 930
Stream size                              : 29.2 KiB (0%)
Title                                    : Malay
Language                                 : Malay
Default                                  : No
Forced                                   : No

Text #28
ID                                       : 30
Format                                   : PGS
Codec ID                                 : S_HDMV/PGS
Codec ID/Info                            : Picture based subtitle format used on BDs/HD-DVDs
Duration                                 : 2 h 8 min
Bit rate                                 : 15.7 kb/s
Count of elements                        : 1680
Stream size                              : 14.5 MiB (0%)
Title                                    : Norwegian
Language                                 : Norwegian
Default                                  : No
Forced                                   : No

Text #29
ID                                       : 31
Format                                   : PGS
Codec ID                                 : S_HDMV/PGS
Codec ID/Info                            : Picture based subtitle format used on BDs/HD-DVDs
Duration                                 : 2 h 8 min
Bit rate                                 : 15.5 kb/s
Count of elements                        : 1792
Stream size                              : 14.2 MiB (0%)
Title                                    : Polish
Language                                 : Polish
Default                                  : No
Forced                                   : No

Text #30
ID                                       : 32
Format                                   : PGS
Codec ID                                 : S_HDMV/PGS
Codec ID/Info                            : Picture based subtitle format used on BDs/HD-DVDs
Duration                                 : 2 h 8 min
Bit rate                                 : 17.6 kb/s
Count of elements                        : 1856
Stream size                              : 16.2 MiB (0%)
Title                                    : Portuguese (Brazilian)
Language                                 : Portuguese
Default                                  : No
Forced                                   : No

Text #31
ID                                       : 33
Format                                   : PGS
Codec ID                                 : S_HDMV/PGS
Codec ID/Info                            : Picture based subtitle format used on BDs/HD-DVDs
Duration                                 : 2 h 8 min
Bit rate                                 : 16.6 kb/s
Count of elements                        : 1870
Stream size                              : 15.3 MiB (0%)
Title                                    : Portuguese (Iberian)
Language                                 : Portuguese
Default                                  : No
Forced                                   : No

Text #32
ID                                       : 34
Format                                   : PGS
Codec ID                                 : S_HDMV/PGS
Codec ID/Info                            : Picture based subtitle format used on BDs/HD-DVDs
Duration                                 : 2 h 8 min
Bit rate                                 : 14.5 kb/s
Count of elements                        : 1886
Stream size                              : 13.3 MiB (0%)
Title                                    : Romanian
Language                                 : Romanian
Default                                  : No
Forced                                   : No

Text #33
ID                                       : 35
Format                                   : PGS
Codec ID                                 : S_HDMV/PGS
Codec ID/Info                            : Picture based subtitle format used on BDs/HD-DVDs
Duration                                 : 2 h 8 min
Bit rate                                 : 15.1 kb/s
Count of elements                        : 2096
Stream size                              : 13.9 MiB (0%)
Title                                    : Russian
Language                                 : Russian
Default                                  : No
Forced                                   : No

Text #34
ID                                       : 36
Format                                   : PGS
Codec ID                                 : S_HDMV/PGS
Codec ID/Info                            : Picture based subtitle format used on BDs/HD-DVDs
Duration                                 : 2 h 8 min
Bit rate                                 : 14.9 kb/s
Count of elements                        : 1864
Stream size                              : 13.7 MiB (0%)
Title                                    : Serbian
Language                                 : Serbian
Default                                  : No
Forced                                   : No

Text #35
ID                                       : 37
Format                                   : UTF-8
Codec ID                                 : S_TEXT/UTF8
Codec ID/Info                            : UTF-8 Plain Text
Duration                                 : 2 h 8 min
Bit rate                                 : 28 b/s
Count of elements                        : 944
Stream size                              : 27.1 KiB (0%)
Title                                    : Slovak
Language                                 : Slovak
Default                                  : No
Forced                                   : No

Text #36
ID                                       : 38
Format                                   : PGS
Codec ID                                 : S_HDMV/PGS
Codec ID/Info                            : Picture based subtitle format used on BDs/HD-DVDs
Duration                                 : 2 h 8 min
Bit rate                                 : 14.2 kb/s
Count of elements                        : 1872
Stream size                              : 13.1 MiB (0%)
Title                                    : Slovenian
Language                                 : Slovenian
Default                                  : No
Forced                                   : No

Text #37
ID                                       : 39
Format                                   : PGS
Codec ID                                 : S_HDMV/PGS
Codec ID/Info                            : Picture based subtitle format used on BDs/HD-DVDs
Duration                                 : 2 h 8 min
Bit rate                                 : 16.1 kb/s
Count of elements                        : 1936
Stream size                              : 14.8 MiB (0%)
Title                                    : Spanish (Castilian)
Language                                 : Spanish
Default                                  : No
Forced                                   : No

Text #38
ID                                       : 40
Format                                   : PGS
Codec ID                                 : S_HDMV/PGS
Codec ID/Info                            : Picture based subtitle format used on BDs/HD-DVDs
Duration                                 : 2 h 8 min
Bit rate                                 : 17.0 kb/s
Count of elements                        : 1846
Stream size                              : 15.7 MiB (0%)
Title                                    : Spanish (Latin American)
Language                                 : Spanish
Default                                  : No
Forced                                   : No

Text #39
ID                                       : 41
Format                                   : PGS
Codec ID                                 : S_HDMV/PGS
Codec ID/Info                            : Picture based subtitle format used on BDs/HD-DVDs
Duration                                 : 2 h 8 min
Bit rate                                 : 16.8 kb/s
Count of elements                        : 1592
Stream size                              : 15.5 MiB (0%)
Title                                    : Swedish
Language                                 : Swedish
Default                                  : No
Forced                                   : No

Text #40
ID                                       : 42
Format                                   : PGS
Codec ID                                 : S_HDMV/PGS
Codec ID/Info                            : Picture based subtitle format used on BDs/HD-DVDs
Duration                                 : 2 h 8 min
Bit rate                                 : 16.2 kb/s
Count of elements                        : 1884
Stream size                              : 14.9 MiB (0%)
Title                                    : Thai
Language                                 : Thai
Default                                  : No
Forced                                   : No

Text #41
ID                                       : 43
Format                                   : PGS
Codec ID                                 : S_HDMV/PGS
Codec ID/Info                            : Picture based subtitle format used on BDs/HD-DVDs
Duration                                 : 2 h 8 min
Bit rate                                 : 16.9 kb/s
Count of elements                        : 1890
Stream size                              : 15.6 MiB (0%)
Title                                    : Turkish
Language                                 : Turkish
Default                                  : No
Forced                                   : No

Menu
00:00:00.000                             : en:Shell Cottage
00:02:58.178                             : en:Griphook's Price
00:06:21.131                             : en:He's After You
00:10:21.830                             : en:Gringotts
00:14:27.950                             : en:Copping the Cup
00:20:05.579                             : en:Exit the Dragon
00:22:47.741                             : en:Final Hiding Place
00:25:38.579                             : en:Aberforth Dumbledore
00:30:46.762                             : en:Hogwarts Reunion
00:34:33.613                             : en:Give Me Harry Potter
00:40:32.221                             : en:Duty To Our School
00:45:52.208                             : en:You Need Only Ask
00:50:15.429                             : en:Blow For Blow
00:54:40.986                             : en:Finding the Diadem
00:59:01.204                             : en:Fiendfyre
01:03:42.027                             : en:He Will Come To Me
01:07:06.022                             : en:Your Mother's Eyes
01:11:24.447                             : en:Confront Your Fate
01:14:38.891                             : en:Visions of a Life
01:23:40.807                             : en:I Open at the Close
01:29:17.686                             : en:The Boy Who Lived
01:31:24.979                             : en:King's Cross
01:36:37.625                             : en:Declare Yourself
01:41:09.063                             : en:Not Over
01:46:42.271                             : en:The Wand's Choice
01:50:18.320                             : en:The Wizard's Choice
01:54:16.641                             : en:Nineteen Years Later
01:58:12.836                             : en:End Credits
